# xmcd
#
# Track frame offsets:
#	150
#	14822
#	30742
#	46607
#	62137
#	77180
#	89939
#	109362
#	134494
#	150624
#	166638
#	181256
#
# Disc length: 2639 seconds
#
# Revision: 7
# Processed by: cddbd v1.5.2PL0 Copyright (c) Steve Scherf et al.
# Submitted via: EasyCDDAExtractor 15.3.0.1
#
DISCID=9f0a4d0c
DTITLE=Yuri
DYEAR=2004
DGENRE=Latin
TTITLE0=Mi Rechazo
TTITLE1=Que No Quede Huella (Participacion De Guadalupe Esparza)
TTITLE2=El Que La Hace La Paga
TTITLE3=Tu Carcel
TTITLE4=Cosas Del Amor (Duo Con Ana Barbara)
TTITLE5=Amor Sin Esperanza
TTITLE6=Y Llegaste Tu (Duo Con Mijares)
TTITLE7=Popurri Juan Gabriel (La Diferencia, Tarde, Te Voy A Olvidar) (Coros P
TTITLE7=andora)
TTITLE8=Asi Son Los Hombres
TTITLE9=No Puedo Mas
TTITLE10=Nada Mas Decidete
TTITLE11=Cuatro Vidas (Duo Con Vicente Fernandez)
EXTD=
EXTT0=
EXTT1=
EXTT2=
EXTT3=
EXTT4=
EXTT5=
EXTT6=
EXTT7=
EXTT8=
EXTT9=
EXTT10=
EXTT11=
PLAYORDER=
